<?xml version="1.0" encoding="utf-8"?>
<!-- Generator: Adobe Illustrator 24.2.3, SVG Export Plug-In . SVG Version: 6.00 Build 0)  -->
<svg version="1.1" id="图层_1" xmlns="http://www.w3.org/2000/svg" xmlns:xlink="http://www.w3.org/1999/xlink" x="0px" y="0px"
	 viewBox="0 0 128 128" style="enable-background:new 0 0 128 128;" xml:space="preserve">
<style type="text/css">
	.st0{fill:#C5A059;}
	.st1{fill:none;}
	.st2{fill:#FFFFFF;}
</style>
<path class="st0" d="M22,0h84c12.15,0,22,9.85,22,22v84c0,12.15-9.85,22-22,22H22c-12.15,0-22-9.85-22-22V22C0,9.85,9.85,0,22,0z"/>
<path class="st1" d="M167.3,94.66c-0.47-0.3-0.98-0.5-1.55-0.64c-0.2-0.07-0.44-0.1-0.67,0c-0.71,0.24-1.31,1.11-1.25,1.95
	c0,0.17,0.1,0.37,0.24,0.57c0.1,0.13,0.2,0.17,0.37,0.1c0.1-0.03,0.2-0.07,0.3-0.1c0.94-0.4,1.78-0.98,2.59-1.58
	C167.5,94.82,167.5,94.76,167.3,94.66z"/>
<g>
	<path class="st2" d="M35.24,41.98c-1.27-1.14-2.22-2.68-2.55-4.17c-1.26-5.72,2.68-11.06,6.78-14.55c3.68-3.13,8-5.15,12.59-6.53
		c4.23-1.29,8.46-1.93,12.78-2.48c4.69-0.46,9.28-0.74,13.97-0.92c4.69-0.18,9.38-0.37,14.06-0.18c1.38,0,2.67-0.09,3.95-0.09
		c2.21,0,4.41,0,6.62-0.09c1.84-0.09,3.68-0.09,5.52,0.37c0.92,0.18,1.75,0.46,2.57,0.92c0.37,0.18,0.74,0.46,1.01,0.83
		c0.92,0.92,1.01,1.93,0.46,3.03c-0.28,0.74-0.74,1.38-1.29,2.02c-5.61,6.8-10.75,13.97-15.53,21.42c-2.94,4.5-5.7,9.1-8.36,13.7
		c-0.55,0.92-0.55,0.92,0.37,1.19c1.84,0.55,3.49,1.2,5.06,2.11c0.83,0.55,1.56,1.19,2.02,2.02c0.92,1.38,0.37,2.85-1.19,3.4
		c-0.55,0.28-1.01,0.28-1.65,0.18c-2.02-0.09-3.86-0.92-5.79-1.56c-0.55-0.28-1.19-0.46-1.75-0.64c-1.01-0.18-1.01-0.18-1.47,0.64
		c-1.01,1.65-2.02,3.4-3.03,5.06c-2.48,4.23-5.06,8.46-7.9,12.41c-2.02,2.85-4.14,5.61-6.43,8.18c-1.75,1.93-3.58,3.77-5.51,5.51
		c-0.83,0.83-0.92,0.83,0,1.56c4.32,3.31,8.64,6.62,13.51,9.1c4.14,2.11,8.55,3.58,13.33,3.86c1.19,0.09,2.39,0,3.49-0.18
		c3.22-0.46,6.43-1.01,9.47-2.02c0.46-0.09,0.92-0.28,1.38-0.46c0.37-0.09,0.64-0.28,0.83-0.74c0.28-0.74,0.92-1.2,1.65-1.47
		c1.93-0.64,3.77-0.55,5.61,0.09c0.18,0.09,0.37,0.18,0.55,0.37c1.65,1.01,1.93,2.48,0.74,3.95c-0.46,0.55-1.01,1.01-1.65,1.38
		c-2.39,1.56-5.06,2.48-7.81,3.22c-3.58,1.01-7.17,1.65-10.75,2.11c-1.1,0.09-2.21,0.28-3.31,0.37c-4.78,0.46-9.47-0.09-14.06-1.2
		c-5.33-1.2-10.29-3.13-15.07-5.79c-2.48-1.47-4.87-3.03-7.26-4.78c-0.09-0.09-0.18-0.18-0.28-0.28c-1.1-0.83-1.1-0.83-2.3-0.09
		c-4.32,2.48-8.92,4.23-13.88,4.96c-4.23,0.64-8.55,0.55-12.68-0.92c-1.56-0.55-3.03-1.38-4.32-2.48c-2.94-2.57-3.77-6.07-2.39-9.65
		c0.92-2.39,2.39-4.23,4.41-5.79c2.76-2.21,5.97-3.49,9.47-4.14c5.79-1.1,11.4-0.83,16.91,1.29c1.01,0.46,1.01,0.37,1.65-0.46
		c1.56-1.84,3.22-3.58,4.69-5.51c3.13-4.14,6.43-8.18,9.47-12.5c0.74-1.1,1.47-2.11,2.3-3.12c0.18-0.28,0.37-0.46,0.37-0.74
		c-0.18-0.18-0.46-0.18-0.64-0.09c-2.21,0.55-4.32,1.29-6.25,2.57c-0.37,0.28-0.74,0.46-1.01,0.83c-0.92,0.92-2.11,1.38-3.4,1.47
		c-2.21,0.18-4.32-0.09-6.25-1.29c-0.18-0.09-0.37-0.18-0.46-0.37c-1.84-1.29-2.02-3.22-0.55-4.87c1.29-1.38,2.85-2.11,4.6-2.76
		c1.93-0.64,3.86-1.1,5.88-1.56c4.32-1.01,8.82-1.75,13.33-2.21c0.55,0,0.92-0.28,1.2-0.74c2.02-2.85,3.95-5.7,5.97-8.46
		c4.23-5.7,8.36-11.58,12.87-17.28c2.02-2.48,4.04-4.96,6.16-7.45c0.09-0.09,0.18-0.18,0.28-0.28c0.09-0.09,0.37-0.28,0.28-0.46
		c-0.09-0.28-0.37-0.18-0.55-0.28c-0.18,0-0.28,0.09-0.37,0.09c-2.67,0.09-5.42,0.18-8.09,0.28c-5.15,0.18-10.29,0.28-15.44,0.46
		c-5.15,0.18-10.2,0.74-15.17,2.39c-3.13,1.1-6.07,2.57-8.55,4.87c-2.76,2.57-2.95,5.82-3.95,9.65c-0.4,1.55-1.05,3.41-2.35,4.45
		C39.84,44.51,37.18,43.72,35.24,41.98z M29.09,97.72c0,0.46,0.28,1.01,0.64,1.56c0.28,0.37,0.55,0.46,1.01,0.28
		c0.28-0.09,0.55-0.18,0.83-0.28c2.57-1.1,4.87-2.67,7.08-4.32c0.46-0.37,0.46-0.55-0.09-0.83c-1.29-0.83-2.67-1.38-4.23-1.75
		c-0.55-0.18-1.19-0.28-1.84,0C30.56,93.03,28.9,95.42,29.09,97.72z"/>
</g>
</svg>
